<svg width="20" height="20" xmlns="http://www.w3.org/2000/svg">

 <g>
  <title>background</title>
  <rect fill="#27b999" id="canvas_background" height="22" width="22" y="-1" x="-1"/>
 </g>
 <g>
  <title>Layer 1</title>
  <path fill="none" stroke="#fffffc" id="svg_2" d="m16.600926,3.089341l-13.207343,0c-0.153701,0 -0.274467,0.138454 -0.274467,0.300987s0.126255,0.300987 0.274467,0.300987l0.82889,0l0,8.668423c0,0.168553 0.126255,0.300987 0.274467,0.300987l2.876412,0l-1.092378,3.858652c-0.043915,0.162533 0.038425,0.331086 0.181148,0.379244c0.027447,0.012039 0.054893,0.012039 0.08234,0.012039c0.115276,0 0.225063,-0.084276 0.263488,-0.210691l1.147271,-4.033225l4.089555,0l1.147271,4.033225c0.038425,0.132434 0.148212,0.210691 0.263488,0.210691c0.027447,0 0.054893,-0.00602 0.08234,-0.012039c0.148212,-0.048158 0.225063,-0.216711 0.181148,-0.379244l-1.092378,-3.858652l2.876412,0c0.153701,0 0.274467,-0.138454 0.274467,-0.300987l0,-8.668423l0.82889,0c0.153701,0 0.274467,-0.138454 0.274467,-0.300987s-0.126255,-0.300987 -0.279956,-0.300987zm-1.383313,8.97543l-10.440717,0l0,-8.367436l10.446207,0l0,8.367436l-0.005489,0z"/>
  <path stroke="null" id="svg_4" d="m211.45499,56.27894l5.03905,0c1.78806,0 3.25101,-1.396 3.25101,-3.10223l0,-15.10789c0,-1.70623 -1.46295,-3.10223 -3.25101,-3.10223l-5.03905,0c-1.78805,0 -3.251,1.396 -3.251,3.10223l0,15.10789c-0.03251,1.70623 1.43044,3.10223 3.251,3.10223zm5.00654,-18.21012l0,15.10789l-5.00654,0l0,-15.10789l5.00654,0z"/>
 </g>
</svg>