<?xml version="1.0" encoding="utf-8"?>
<!-- Generator: Adobe Illustrator 17.0.0, SVG Export Plug-In . SVG Version: 6.00 Build 0)  -->
<!DOCTYPE svg PUBLIC "-//W3C//DTD SVG 1.1//EN" "http://www.w3.org/Graphics/SVG/1.1/DTD/svg11.dtd">
<svg version="1.1" id="Layer_1" xmlns="http://www.w3.org/2000/svg" xmlns:xlink="http://www.w3.org/1999/xlink" x="0px" y="0px"
	 width="20px" height="20px" viewBox="240 240 20 20" enable-background="new 240 240 20 20" xml:space="preserve">
<path fill="#FFFFFF" d="M240.317,259.683c0.423,0.422,1.107,0.422,1.53,0l8.166-8.166l8.166,8.166
	c0.437,0.408,1.122,0.383,1.53-0.054c0.387-0.416,0.387-1.06,0-1.476l-8.166-8.166l8.166-8.166c0.408-0.437,0.383-1.122-0.054-1.53
	c-0.416-0.387-1.06-0.387-1.476,0l-8.166,8.166l-8.166-8.166c-0.437-0.408-1.122-0.383-1.53,0.054c-0.387,0.416-0.387,1.06,0,1.476
	l8.166,8.166l-8.166,8.166C239.894,258.576,239.894,259.261,240.317,259.683z"/>
</svg>
