<?xml version="1.0" encoding="utf-8"?>
<!-- Generator: Adobe Illustrator 17.0.0, SVG Export Plug-In . SVG Version: 6.00 Build 0)  -->
<!DOCTYPE svg PUBLIC "-//W3C//DTD SVG 1.1//EN" "http://www.w3.org/Graphics/SVG/1.1/DTD/svg11.dtd">
<svg version="1.1" id="Layer_1" xmlns="http://www.w3.org/2000/svg" xmlns:xlink="http://www.w3.org/1999/xlink" x="0px" y="0px"
	 width="15px" height="15.22px" viewBox="0 0 15 15.22" enable-background="new 0 0 15 15.22" xml:space="preserve">
<path fill="#FFFFFF" d="M14.999,4.093v1.951v7.06c0,1.181-0.962,2.115-2.115,2.115H2.115C0.934,15.219,0,14.257,0,13.104v-7.06
	V4.093c0-1.181,0.962-2.115,2.115-2.115h0.714v0.824v1.236c0,0.852,0.687,1.538,1.538,1.538s1.538-0.687,1.538-1.538V2.802V1.978
	h3.352v0.824v1.236c0,0.852,0.687,1.538,1.538,1.538c0.852,0,1.538-0.687,1.538-1.538V2.802V1.978h0.577
	C14.037,1.978,14.999,2.912,14.999,4.093z M14.368,5.852H0.632v7.253c0,0.824,0.659,1.484,1.484,1.484h10.769
	c0.824,0,1.484-0.659,1.484-1.484V5.852H14.368z M4.368,4.973c0.522,0,0.934-0.412,0.934-0.934V2.803V1.979V0.935
	c0-0.522-0.412-0.934-0.934-0.934S3.434,0.413,3.434,0.935v1.044v0.824v1.236C3.433,4.56,3.846,4.973,4.368,4.973z M10.796,4.973
	c0.522,0,0.934-0.412,0.934-0.934V2.803V1.979V0.935c0-0.522-0.412-0.934-0.934-0.934S9.863,0.413,9.863,0.935v1.044v0.824v1.236
	C9.834,4.56,10.274,4.973,10.796,4.973z M10.933,7.83c-0.275-0.275-0.742-0.275-1.016,0l-3.352,3.324L5.083,9.67
	c-0.275-0.275-0.742-0.275-1.017,0s-0.275,0.742,0,1.016l1.978,1.978c0.137,0.137,0.33,0.22,0.495,0.22s0.357-0.082,0.495-0.22
	l3.846-3.846C11.209,8.544,11.209,8.104,10.933,7.83z"/>
</svg>
