<?xml version="1.0" encoding="utf-8"?>
<!-- Generator: Adobe Illustrator 17.0.0, SVG Export Plug-In . SVG Version: 6.00 Build 0)  -->
<!DOCTYPE svg PUBLIC "-//W3C//DTD SVG 1.1//EN" "http://www.w3.org/Graphics/SVG/1.1/DTD/svg11.dtd">
<svg version="1.1" id="Layer_1" xmlns="http://www.w3.org/2000/svg" xmlns:xlink="http://www.w3.org/1999/xlink" x="0px" y="0px"
	 width="26px" height="15px" viewBox="293 388.5 26 15" enable-background="new 293 388.5 26 15" xml:space="preserve">
<path fill="#FFFFFF" d="M316.16,388.5h-20.32c-1.566,0-2.84,1.274-2.84,2.84v9.23c0,1.566,1.274,2.84,2.84,2.84h20.32
	c1.566,0,2.84-1.274,2.84-2.84v-9.23C319,389.774,317.726,388.5,316.16,388.5z M317.107,400.57c0,0.522-0.424,0.947-0.947,0.947
	h-20.32c-0.522,0-0.947-0.424-0.947-0.947v-2.31l8.542-3.426l3.468,4.428c0.155,0.199,0.384,0.327,0.634,0.356
	c0.25,0.03,0.503-0.042,0.7-0.199l2.444-1.943l6.426,2.886V400.57L317.107,400.57z M317.107,397.93l-5.514-2.371
	c-0.409-0.173-0.665-0.304-0.839-0.364c-0.248-0.031-0.301,0.043-0.499,0.201l-2.449,1.947l-3.459-4.416
	c-0.32-0.409-0.911-0.484-1.323-0.166l-8.13,3.11v-4.53c0-0.522,0.424-0.947,0.947-0.947h20.32c0.522,0,0.947,0.424,0.947,0.947
	V397.93z M308.208,392.178c-0.983,0-1.783,0.799-1.783,1.782c0,0.983,0.8,1.783,1.783,1.783c0.983,0,1.783-0.8,1.783-1.783
	C309.991,392.977,309.191,392.178,308.208,392.178z M308.208,394.071c-0.061,0-0.111-0.05-0.111-0.111c0-0.061,0.05-0.11,0.111-0.11
	c0.061,0,0.111,0.05,0.111,0.11C308.319,394.021,308.269,394.071,308.208,394.071z"/>
</svg>
