<?xml version="1.0" encoding="utf-8"?>
<!-- Generator: Adobe Illustrator 17.0.0, SVG Export Plug-In . SVG Version: 6.00 Build 0)  -->
<!DOCTYPE svg PUBLIC "-//W3C//DTD SVG 1.1//EN" "http://www.w3.org/Graphics/SVG/1.1/DTD/svg11.dtd">
<svg version="1.1" id="Layer_1" xmlns="http://www.w3.org/2000/svg" xmlns:xlink="http://www.w3.org/1999/xlink" x="0px" y="0px"
	 width="16px" height="16px" viewBox="242 242 16 16" enable-background="new 242 242 16 16" xml:space="preserve">
<path fill="#DD4C76" d="M249.262,242c-4.009,0-7.262,3.253-7.262,7.262c0,4.009,3.253,7.262,7.262,7.262
	c1.589,0,3.064-0.53,4.274-1.4l2.875,2.875l1.589-1.589l-2.875-2.875c0.87-1.21,1.4-2.686,1.4-4.274
	C256.525,245.253,253.272,242,249.262,242z M244.27,249.262c0-2.761,2.232-4.993,4.993-4.993c2.761,0,4.993,2.232,4.993,4.993
	s-2.232,4.993-4.993,4.993C246.501,254.255,244.27,252.024,244.27,249.262z"/>
</svg>
