<?xml version="1.0" encoding="utf-8"?>
<!-- Generator: Adobe Illustrator 17.0.0, SVG Export Plug-In . SVG Version: 6.00 Build 0)  -->
<!DOCTYPE svg PUBLIC "-//W3C//DTD SVG 1.1//EN" "http://www.w3.org/Graphics/SVG/1.1/DTD/svg11.dtd">
<svg version="1.1" id="Layer_1" xmlns="http://www.w3.org/2000/svg" xmlns:xlink="http://www.w3.org/1999/xlink" x="0px" y="0px"
	 width="21px" height="20px" viewBox="0 0 21 20" enable-background="new 0 0 21 20" xml:space="preserve">
<path d="M20.951,7.558c-0.12-0.337-0.397-0.573-0.723-0.616l-6.16-0.901l-2.759-5.576c-0.153-0.306-0.466-0.497-0.817-0.497
	c-0.332,0-0.653,0.196-0.818,0.501L6.917,6.041l-6.157,0.9C0.423,6.986,0.127,7.234,0.039,7.543
	c-0.098,0.342-0.011,0.702,0.226,0.939l4.47,4.354l-1.047,6.135c-0.064,0.319,0.08,0.664,0.367,0.879
	c0.146,0.109,0.333,0.17,0.527,0.17c0.149,0,0.294-0.036,0.419-0.103l5.52-2.905l5.516,2.903c0.164,0.082,0.294,0.117,0.435,0.117
	c0.178,0,0.387-0.07,0.546-0.183c0.269-0.203,0.408-0.542,0.363-0.888l-1.045-6.124l4.457-4.342
	C20.992,8.213,21.054,7.847,20.951,7.558z M14.67,11.86c-0.215,0.215-0.318,0.513-0.275,0.795l0.819,4.788l-4.315-2.268
	c-0.164-0.082-0.294-0.117-0.435-0.117s-0.271,0.035-0.435,0.117l-4.315,2.268l0.82-4.792c0.046-0.302-0.051-0.589-0.268-0.784
	l-0.009-0.008L2.853,8.455l4.816-0.693c0.295-0.045,0.543-0.228,0.679-0.5l2.144-4.351l2.145,4.353
	c0.136,0.271,0.384,0.454,0.681,0.499l4.819,0.693L14.67,11.86z"/>
</svg>
