<?xml version="1.0" encoding="utf-8"?>
<!-- Generator: Adobe Illustrator 17.0.0, SVG Export Plug-In . SVG Version: 6.00 Build 0)  -->
<!DOCTYPE svg PUBLIC "-//W3C//DTD SVG 1.1//EN" "http://www.w3.org/Graphics/SVG/1.1/DTD/svg11.dtd">
<svg version="1.1" id="Layer_1" xmlns="http://www.w3.org/2000/svg" xmlns:xlink="http://www.w3.org/1999/xlink" x="0px" y="0px"
	 width="21px" height="20.552px" viewBox="0 0 21 20.552" enable-background="new 0 0 21 20.552" xml:space="preserve">
<g>
	<path d="M14.842-0.001H2.596c-1.439,0-2.596,1.156-2.596,2.596v15.361c0,1.439,1.156,2.596,2.596,2.596h15.927
		c1.369,0,2.478-1.109,2.478-2.478v-7.551c0-1.439-1.156-2.595-2.596-2.595h-0.967V2.596C17.437,1.179,16.281-0.001,14.842-0.001z
		 M2.596,19.16c-0.661,0-1.18-0.519-1.18-1.18V2.596c0-0.661,0.519-1.18,1.18-1.18h12.246c0.661,0,1.18,0.519,1.18,1.18v15.479
		c0,0.378,0.094,0.755,0.236,1.062H2.596V19.16z M18.403,9.343c0.661,0,1.18,0.519,1.18,1.18v7.551c0,0.59-0.472,1.062-1.062,1.062
		c-0.59,0-1.062-0.472-1.062-1.062v-8.73L18.403,9.343L18.403,9.343z"/>
	<path d="M13.614,3.774H3.822c-0.401,0-0.708,0.307-0.708,0.708v5.71c0,0.401,0.307,0.708,0.708,0.708h9.792
		c0.401,0,0.708-0.307,0.708-0.708v-5.71C14.321,4.105,14.015,3.774,13.614,3.774z M12.907,9.484H4.531V5.19h8.376V9.484z"/>
	<path d="M13.165,12.387H3.821c-0.401,0-0.708,0.307-0.708,0.708s0.307,0.708,0.708,0.708h9.344c0.401,0,0.708-0.307,0.708-0.708
		S13.566,12.387,13.165,12.387z"/>
	<path d="M13.165,15.101H3.821c-0.401,0-0.708,0.307-0.708,0.708s0.307,0.708,0.708,0.708h9.344c0.401,0,0.708-0.307,0.708-0.708
		S13.566,15.101,13.165,15.101z"/>
</g>
</svg>
