<?xml version="1.0" encoding="utf-8"?>
<!-- Generator: Adobe Illustrator 17.0.0, SVG Export Plug-In . SVG Version: 6.00 Build 0)  -->
<!DOCTYPE svg PUBLIC "-//W3C//DTD SVG 1.1//EN" "http://www.w3.org/Graphics/SVG/1.1/DTD/svg11.dtd">
<svg version="1.1" id="Layer_1" xmlns="http://www.w3.org/2000/svg" xmlns:xlink="http://www.w3.org/1999/xlink" x="0px" y="0px"
	 width="11px" height="18px" viewBox="494.5 491 11 18" enable-background="new 494.5 491 11 18" xml:space="preserve">
<g transform="translate(0,-952.36218)">
	<path fill="#FFFFFF" d="M499.994,1443.399c-3.033,0-5.494,2.464-5.494,5.5c0,0.726,0.195,1.565,0.433,2.183
		c1.571,3.196,3.137,6.812,4.704,10.013c0.068,0.133,0.214,0.229,0.363,0.229s0.295-0.096,0.363-0.229
		c1.585-3.192,3.109-6.829,4.704-10.013c0.24-0.619,0.433-1.458,0.433-2.183C505.5,1445.862,503.026,1443.399,499.994,1443.399
		L499.994,1443.399z M499.994,1444.214c2.593,0,4.692,2.089,4.692,4.685c0,0.568-0.181,1.372-0.382,1.891l-4.303,9.205l-4.303-9.205
		c-0.2-0.519-0.382-1.323-0.382-1.891C495.315,1446.302,497.401,1444.214,499.994,1444.214z M499.994,1445.844
		c-1.682,0-3.049,1.372-3.049,3.056c0,1.684,1.367,3.056,3.049,3.056c1.682,0,3.062-1.371,3.062-3.056
		C503.056,1447.214,501.676,1445.844,499.994,1445.844z M499.994,1446.658c1.243,0,2.247,0.997,2.247,2.241
		c0,1.244-1.004,2.241-2.247,2.241c-1.243,0-2.234-0.995-2.234-2.241C497.759,1447.654,498.751,1446.658,499.994,1446.658z"/>
</g>
</svg>
