<?xml version="1.0" encoding="utf-8"?>
<!-- Generator: Adobe Illustrator 17.0.0, SVG Export Plug-In . SVG Version: 6.00 Build 0)  -->
<!DOCTYPE svg PUBLIC "-//W3C//DTD SVG 1.1//EN" "http://www.w3.org/Graphics/SVG/1.1/DTD/svg11.dtd">
<svg version="1.1" id="Layer_1" xmlns="http://www.w3.org/2000/svg" xmlns:xlink="http://www.w3.org/1999/xlink" x="0px" y="0px"
	 width="15px" height="10px" viewBox="42.5 45 15 10" enable-background="new 42.5 45 15 10" xml:space="preserve">
<path fill="#FFFFFF" d="M55.873,45H44.127c-0.897,0-1.627,0.73-1.627,1.627v6.601c0,0.897,0.73,1.627,1.627,1.627h11.746
	c0.897,0,1.627-0.73,1.627-1.627v-6.601C57.5,45.73,56.77,45,55.873,45z M44.127,45.856h11.746c0.425,0,0.771,0.346,0.771,0.771
	v0.81l-5.731,4c-0.125,0.092-0.531,0.33-0.895,0.33c-0.506,0-0.853-0.28-0.854-0.28l-5.808-4.002v-0.858
	C43.356,46.202,43.702,45.856,44.127,45.856z M55.873,53.999H44.127c-0.425,0-0.771-0.346-0.771-0.771v-4.704l5.273,3.632
	c0.117,0.094,0.631,0.467,1.388,0.467c0.713,0,1.336-0.447,1.394-0.491l5.232-3.651v4.747
	C56.644,53.653,56.298,53.999,55.873,53.999z"/>
</svg>
