<?xml version="1.0" encoding="utf-8"?>
<!-- Generator: Adobe Illustrator 17.0.0, SVG Export Plug-In . SVG Version: 6.00 Build 0)  -->
<!DOCTYPE svg PUBLIC "-//W3C//DTD SVG 1.1//EN" "http://www.w3.org/Graphics/SVG/1.1/DTD/svg11.dtd">
<svg version="1.1" id="Layer_1" xmlns="http://www.w3.org/2000/svg" xmlns:xlink="http://www.w3.org/1999/xlink" x="0px" y="0px"
	 width="15px" height="15.22px" viewBox="298.5 388.5 15 15.22" enable-background="new 298.5 388.5 15 15.22" xml:space="preserve"
	>
<path d="M313.5,392.593v1.951v7.06c0,1.181-0.962,2.115-2.115,2.115h-10.769c-1.181,0-2.115-0.962-2.115-2.115v-7.06v-1.951
	c0-1.181,0.962-2.115,2.115-2.115h0.714v0.824v1.236c0,0.852,0.687,1.538,1.538,1.538s1.538-0.687,1.538-1.538v-1.236v-0.824h3.352
	v0.824v1.236c0,0.852,0.687,1.538,1.538,1.538c0.852,0,1.538-0.687,1.538-1.538v-1.236v-0.824h0.577
	C312.538,390.478,313.5,391.412,313.5,392.593z M312.868,394.352h-13.736v7.253c0,0.824,0.659,1.484,1.484,1.484h10.769
	c0.824,0,1.484-0.659,1.484-1.484V394.352z M302.868,393.473c0.522,0,0.934-0.412,0.934-0.934v-1.236v-0.824v-1.044
	c0-0.522-0.412-0.934-0.934-0.934s-0.934,0.412-0.934,0.934v1.044v0.824v1.236C301.934,393.06,302.346,393.473,302.868,393.473z
	 M309.297,393.473c0.522,0,0.934-0.412,0.934-0.934v-1.236v-0.824v-1.044c0-0.522-0.412-0.934-0.934-0.934
	c-0.522,0-0.934,0.412-0.934,0.934v1.044v0.824v1.236C308.335,393.06,308.775,393.473,309.297,393.473z M309.434,396.33
	c-0.275-0.275-0.742-0.275-1.016,0l-3.352,3.324l-1.483-1.484c-0.275-0.275-0.742-0.275-1.017,0c-0.275,0.275-0.275,0.742,0,1.016
	l1.978,1.978c0.137,0.137,0.33,0.22,0.495,0.22c0.165,0,0.357-0.082,0.495-0.22l3.846-3.846
	C309.709,397.044,309.709,396.604,309.434,396.33z"/>
</svg>
