<?xml version="1.0" encoding="utf-8"?>
<!-- Generator: Adobe Illustrator 17.0.0, SVG Export Plug-In . SVG Version: 6.00 Build 0)  -->
<!DOCTYPE svg PUBLIC "-//W3C//DTD SVG 1.1//EN" "http://www.w3.org/Graphics/SVG/1.1/DTD/svg11.dtd">
<svg version="1.1" id="Layer_1" xmlns="http://www.w3.org/2000/svg" xmlns:xlink="http://www.w3.org/1999/xlink" x="0px" y="0px"
	 width="20px" height="12.551px" viewBox="296 389.5 20 12.551" enable-background="new 296 389.5 20 12.551" xml:space="preserve">
<g>
	<path d="M315.733,395.405c-0.041-0.062-1.091-1.502-2.798-2.942c-2.305-1.934-4.691-2.963-6.934-2.963s-4.63,1.029-6.934,2.984
		c-1.708,1.44-2.757,2.86-2.798,2.922l-0.267,0.37l0.267,0.37c0.041,0.062,1.091,1.481,2.798,2.942
		c2.305,1.934,4.691,2.963,6.934,2.963s4.63-1.029,6.934-2.984c1.708-1.44,2.757-2.86,2.798-2.922l0.267-0.37L315.733,395.405z
		 M306,400.817c-3.992,0-7.469-3.827-8.457-5.041c1.008-1.214,4.465-5.041,8.457-5.041s7.449,3.827,8.457,5.041
		C313.449,396.99,309.992,400.817,306,400.817z"/>
	<path d="M306,391.578c-2.305,0-4.198,1.893-4.198,4.198c0,2.325,1.893,4.198,4.198,4.198s4.198-1.893,4.198-4.198
		S308.305,391.578,306,391.578z M306,398.739c-1.626,0-2.963-1.337-2.963-2.963s1.337-2.963,2.963-2.963s2.963,1.337,2.963,2.963
		S307.626,398.739,306,398.739z"/>
</g>
</svg>
