<?xml version="1.0" encoding="utf-8"?>
<!-- Generator: Adobe Illustrator 17.0.0, SVG Export Plug-In . SVG Version: 6.00 Build 0)  -->
<!DOCTYPE svg PUBLIC "-//W3C//DTD SVG 1.1//EN" "http://www.w3.org/Graphics/SVG/1.1/DTD/svg11.dtd">
<svg version="1.1" id="Layer_1" xmlns="http://www.w3.org/2000/svg" xmlns:xlink="http://www.w3.org/1999/xlink" x="0px" y="0px"
	 width="33px" height="27px" viewBox="-9 -7.458 33 27" enable-background="new -9 -7.458 33 27" xml:space="preserve">
<path fill="#FFFFFF" d="M12.542-7.249h-19.25C-7.973-7.249-9-6.224-9-4.957V7.418C-9,8.683-7.975,9.71-6.708,9.71h1.833v4.583
	c0,0.506,0.409,0.917,0.915,0.917c0.231,0,0.455-0.088,0.625-0.244l5.691-5.258h0.559v2.75c0,1.265,1.025,2.292,2.292,2.292h7.957
	l6.178,4.413c0.411,0.293,0.986,0.198,1.278-0.216c0.11-0.156,0.169-0.341,0.169-0.532v-3.665h0.917
	c1.265,0,2.292-1.025,2.292-2.292V-0.374c0-1.265-1.025-2.292-2.292-2.292h-6.875v-2.292C14.833-6.224,13.807-7.249,12.542-7.249z
	 M2,7.876c-0.231,0-0.453,0.086-0.623,0.242l-4.418,4.079V8.791c0-0.506-0.411-0.917-0.917-0.917h-2.75
	c-0.253,0-0.458-0.205-0.458-0.458V-4.959c0-0.253,0.205-0.458,0.458-0.458h19.25C12.795-5.417,13-5.212,13-4.959V7.416
	c0,0.253-0.205,0.458-0.458,0.458H2V7.876z M21.708-0.832c0.253,0,0.458,0.205,0.458,0.458v12.833c0,0.253-0.205,0.458-0.458,0.458
	h-1.833c-0.506,0-0.917,0.411-0.917,0.917v2.801l-4.968-3.546c-0.156-0.11-0.341-0.169-0.532-0.169h-8.25
	c-0.253,0-0.458-0.205-0.458-0.458V9.71h7.792c1.265,0,2.292-1.025,2.292-2.292v-8.25H21.708z"/>
</svg>
