<?xml version="1.0" encoding="utf-8"?>
<!-- Generator: Adobe Illustrator 17.0.0, SVG Export Plug-In . SVG Version: 6.00 Build 0)  -->
<!DOCTYPE svg PUBLIC "-//W3C//DTD SVG 1.1//EN" "http://www.w3.org/Graphics/SVG/1.1/DTD/svg11.dtd">
<svg version="1.1" id="Layer_1" xmlns="http://www.w3.org/2000/svg" xmlns:xlink="http://www.w3.org/1999/xlink" x="0px" y="0px"
	 width="15px" height="15.36px" viewBox="298.5 388 15 15.36" enable-background="new 298.5 388 15 15.36" xml:space="preserve">
<g>
	<path fill="#FFFFFF" d="M311.372,390.256c-1.419-1.454-3.368-2.268-5.4-2.256c-4.137,0.01-7.482,3.372-7.472,7.509
		c0.01,4.137,3.372,7.482,7.509,7.472c0.899-0.002,1.79-0.166,2.631-0.484l1.349,0.761c0.125,0.067,0.265,0.102,0.406,0.102
		c0.149,0.001,0.296-0.038,0.425-0.113c0.265-0.153,0.427-0.436,0.425-0.742v-1.67C314.201,397.949,314.258,393.212,311.372,390.256
		z M310.315,400.191l-0.004-0.002c-0.117,0.105-0.185,0.254-0.185,0.412v1.458l-1.176-0.662c-0.15-0.085-0.331-0.095-0.49-0.028
		c-3.26,1.352-6.999-0.196-8.351-3.456c-1.352-3.26,0.196-6.999,3.456-8.351c3.26-1.352,6.999,0.196,8.351,3.456
		C312.948,395.508,312.308,398.377,310.315,400.191z"/>
	<circle fill="#FFFFFF" cx="302.819" cy="395.68" r="1.299"/>
	<ellipse fill="#FFFFFF" cx="306.1" cy="395.686" rx="1.308" ry="1.3"/>
	<circle fill="#FFFFFF" cx="309.387" cy="395.68" r="1.299"/>
</g>
</svg>
