<?xml version="1.0" encoding="utf-8"?>
<!-- Generator: Adobe Illustrator 17.0.0, SVG Export Plug-In . SVG Version: 6.00 Build 0)  -->
<!DOCTYPE svg PUBLIC "-//W3C//DTD SVG 1.1//EN" "http://www.w3.org/Graphics/SVG/1.1/DTD/svg11.dtd">
<svg version="1.1" id="Layer_1" xmlns="http://www.w3.org/2000/svg" xmlns:xlink="http://www.w3.org/1999/xlink" x="0px" y="0px"
	 width="26px" height="15px" viewBox="293 388.5 26 15" enable-background="new 293 388.5 26 15" xml:space="preserve">
<path fill="#FFFFFF" d="M318.031,389.124c-0.572-0.301-1.262-0.265-1.8,0.094l-3.918,2.517c-0.117-1.795-1.61-3.215-3.435-3.215
	h-12.467c-1.901,0-3.443,1.541-3.443,3.443v8.094c0,1.901,1.541,3.443,3.443,3.443h12.467c1.816,0,3.302-1.406,3.433-3.188
	l3.92,2.518c0.286,0.184,0.618,0.282,0.958,0.282c0.294,0,0.584-0.075,0.842-0.216c0.582-0.32,0.942-0.932,0.939-1.596v-10.579
	C318.973,390.057,318.613,389.444,318.031,389.124z M310.444,400.057c0,0.864-0.701,1.565-1.565,1.565h-12.467
	c-0.864,0-1.565-0.701-1.565-1.565v-8.094c0-0.864,0.701-1.565,1.565-1.565h12.467c0.864,0,1.565,0.701,1.565,1.565V400.057z
	 M317.095,401.149l-4.773-3.051v-4.151l4.773-3.077V401.149z"/>
<path fill="#FFFFFF" d="M304.516,392.567h-6.886c-0.519,0-0.939,0.42-0.939,0.939c0,0.519,0.42,0.939,0.939,0.939h6.886
	c0.519,0,0.939-0.42,0.939-0.939C305.455,392.988,305.034,392.567,304.516,392.567z"/>
</svg>
