<?xml version="1.0" encoding="utf-8"?>
<!-- Generator: Adobe Illustrator 17.0.0, SVG Export Plug-In . SVG Version: 6.00 Build 0)  -->
<!DOCTYPE svg PUBLIC "-//W3C//DTD SVG 1.1//EN" "http://www.w3.org/Graphics/SVG/1.1/DTD/svg11.dtd">
<svg version="1.1" id="Layer_1" xmlns="http://www.w3.org/2000/svg" xmlns:xlink="http://www.w3.org/1999/xlink" x="0px" y="0px"
	 width="23px" height="25.042px" viewBox="294.5 383 23 25.042" enable-background="new 294.5 383 23 25.042" xml:space="preserve">
<path d="M305.966,391.713c-2.557,0-4.901,1.305-6.286,3.463c-0.133,0.213-0.133,0.506,0,0.719c1.359,2.158,3.729,3.463,6.286,3.463
	c2.557,0,4.901-1.305,6.286-3.463c0.133-0.213,0.133-0.506,0-0.719C310.867,393.018,308.523,391.713,305.966,391.713z
	 M305.966,398.053c-1.945,0-3.756-0.932-4.901-2.504c1.145-1.572,2.957-2.504,4.901-2.504c1.945,0,3.756,0.932,4.901,2.504
	C309.722,397.12,307.91,398.053,305.966,398.053z M305.966,394.297c-0.693,0-1.252,0.559-1.252,1.252
	c0,0.693,0.559,1.252,1.252,1.252c0.693,0,1.252-0.559,1.252-1.252C307.218,394.856,306.659,394.297,305.966,394.297z
	 M305.966,395.629c-0.053,0-0.08-0.053-0.08-0.08c0-0.027,0.053-0.08,0.08-0.08s0.08,0.053,0.08,0.08
	C306.046,395.575,306.019,395.629,305.966,395.629z M317.287,390.354c-0.426-1.305-1.145-2.238-2.184-2.824
	c-1.119-0.666-2.238-1.305-3.356-1.945c-1.119-0.639-2.238-1.279-3.356-1.945c-0.719-0.4-1.438-0.613-2.238-0.639
	c-0.959-0.027-1.785,0.16-2.504,0.586c-0.639,0.373-1.279,0.719-1.891,1.092c-1.598,0.906-3.25,1.865-4.875,2.824
	c-1.545,0.932-2.371,2.371-2.371,4.129c-0.027,1.731,0,3.49,0,5.194c0,0.852,0,1.731,0,2.584c0,0.506,0.08,0.986,0.213,1.385
	c0.426,1.225,1.145,2.158,2.158,2.744c1.092,0.639,2.211,1.279,3.33,1.918c1.119,0.639,2.238,1.279,3.33,1.918
	c0.666,0.4,1.358,0.613,2.158,0.666c0.133,0,0.266,0,0.373,0c0.879,0,1.625-0.213,2.317-0.613c2.184-1.279,4.448-2.584,6.686-3.889
	c0.719-0.4,1.305-0.959,1.731-1.705c0.479-0.826,0.693-1.518,0.693-2.264v-7.965C317.473,391.233,317.42,390.781,317.287,390.354z
	 M316.141,399.624c0,0.479-0.16,0.986-0.533,1.598c-0.293,0.533-0.693,0.932-1.225,1.225c-2.264,1.305-4.528,2.61-6.713,3.889
	c-0.559,0.32-1.172,0.453-1.918,0.426c-0.586-0.053-1.092-0.213-1.572-0.506c-1.119-0.639-2.211-1.279-3.33-1.918
	c-1.119-0.639-2.211-1.279-3.33-1.918c-0.746-0.426-1.252-1.065-1.572-2.024c-0.107-0.266-0.16-0.586-0.16-0.959
	c0-0.852,0-1.731,0-2.584c0-1.705,0-3.463,0-5.194c0-1.332,0.559-2.291,1.731-3.01c1.598-0.959,3.25-1.891,4.848-2.824
	c0.639-0.373,1.279-0.719,1.918-1.092c0.479-0.293,0.986-0.426,1.625-0.426c0.053,0,0.107,0,0.16,0
	c0.586,0.027,1.119,0.186,1.625,0.479c1.119,0.666,2.238,1.305,3.356,1.945c1.119,0.639,2.238,1.279,3.356,1.945
	c0.746,0.426,1.252,1.092,1.572,2.078c0.08,0.266,0.133,0.586,0.133,0.906v7.965H316.141z"/>
</svg>
