<?xml version="1.0" encoding="utf-8"?>
<!-- Generator: Adobe Illustrator 17.0.0, SVG Export Plug-In . SVG Version: 6.00 Build 0)  -->
<!DOCTYPE svg PUBLIC "-//W3C//DTD SVG 1.1//EN" "http://www.w3.org/Graphics/SVG/1.1/DTD/svg11.dtd">
<svg version="1.1" id="Layer_1" xmlns="http://www.w3.org/2000/svg" xmlns:xlink="http://www.w3.org/1999/xlink" x="0px" y="0px"
	 width="15px" height="14.988px" viewBox="477.498 285.219 15 14.988" enable-background="new 477.498 285.219 15 14.988"
	 xml:space="preserve">
<path fill="#FFFFFF" d="M492.087,296.034c-0.809-0.642-1.656-1.274-2.478-1.898c-0.431-0.232-0.836-0.302-1.173-0.189
	c-0.337,0.113-0.538,0.349-0.721,0.554c-0.59,0.659-1.124,0.826-1.63,0.778c-0.494-0.056-1.017-0.337-1.45-0.791l-1.406-1.406
	c-0.454-0.433-0.735-0.956-0.791-1.45c-0.048-0.506,0.119-1.04,0.778-1.63c0.204-0.183,0.441-0.383,0.554-0.721
	c0.113-0.337,0.043-0.742-0.189-1.173c-0.624-0.822-1.256-1.67-1.898-2.478c-0.385-0.385-0.893-0.485-1.292-0.36
	c-0.399,0.124-0.701,0.391-0.953,0.637c-1.185,1.137-2.198,2.689-1.88,4.596c0.267,1.542,1.347,3.034,3.001,4.688
	c0.704,0.704,1.257,1.257,1.968,1.968c1.654,1.654,3.146,2.734,4.688,3.001c1.596,0.242,3.223-0.45,4.596-1.881
	c0.246-0.253,0.513-0.555,0.637-0.953C492.572,296.927,492.473,296.42,492.087,296.034z M491.692,297.089
	c-0.054,0.173-0.232,0.411-0.448,0.633c-1.424,1.424-2.629,1.871-3.893,1.652c-1.264-0.219-2.656-1.171-4.262-2.777
	c-0.585-0.585-1.309-1.309-1.968-1.968c-1.605-1.605-2.558-2.998-2.777-4.262c-0.219-1.264,0.229-2.469,1.652-3.893
	c0.222-0.216,0.46-0.394,0.633-0.448c0.173-0.054,0.264-0.061,0.492,0.167l1.766,2.311c0.164,0.311,0.156,0.436,0.127,0.523
	c-0.029,0.088-0.135,0.208-0.33,0.382c-0.797,0.714-1.114,1.538-1.041,2.298c0.072,0.758,0.492,1.421,1.024,1.938l1.406,1.406
	c0.517,0.532,1.18,0.951,1.938,1.024c0.76,0.073,1.583-0.244,2.298-1.041c0.174-0.194,0.294-0.3,0.382-0.33
	c0.086-0.029,0.212-0.037,0.523,0.127l2.311,1.766C491.752,296.824,491.746,296.916,491.692,297.089z"/>
</svg>
