<?xml version="1.0" encoding="utf-8"?>
<!-- Generator: Adobe Illustrator 17.0.0, SVG Export Plug-In . SVG Version: 6.00 Build 0)  -->
<!DOCTYPE svg PUBLIC "-//W3C//DTD SVG 1.1//EN" "http://www.w3.org/Graphics/SVG/1.1/DTD/svg11.dtd">
<svg version="1.1" id="Layer_1" xmlns="http://www.w3.org/2000/svg" xmlns:xlink="http://www.w3.org/1999/xlink" x="0px" y="0px"
	 width="25px" height="25px" viewBox="0 0 25 25" enable-background="new 0 0 25 25" xml:space="preserve">
<path fill="#FFFFFF" d="M11.347,0C5.083,0,0,5.083,0,11.347s5.083,11.347,11.347,11.347c2.483,0,4.787-0.828,6.678-2.187L22.517,25
	L25,22.517l-4.492-4.492c1.359-1.891,2.187-4.197,2.187-6.678C22.695,5.083,17.613,0,11.347,0z M3.547,11.347
	c0-4.314,3.487-7.802,7.802-7.802s7.802,3.487,7.802,7.802s-3.487,7.802-7.802,7.802C7.033,19.149,3.547,15.663,3.547,11.347z"/>
</svg>
