<?xml version="1.0" encoding="utf-8"?>
<!-- Generator: Adobe Illustrator 17.0.0, SVG Export Plug-In . SVG Version: 6.00 Build 0)  -->
<!DOCTYPE svg PUBLIC "-//W3C//DTD SVG 1.1//EN" "http://www.w3.org/Graphics/SVG/1.1/DTD/svg11.dtd">
<svg version="1.1" id="Layer_1" xmlns="http://www.w3.org/2000/svg" xmlns:xlink="http://www.w3.org/1999/xlink" x="0px" y="0px"
	 width="25px" height="15.32px" viewBox="293.5 388 25 15.32" enable-background="new 293.5 388 25 15.32" xml:space="preserve">
<g transform="translate(0,-952.36218)">
	<path fill="#FFFFFF" d="M318.211,1347.231l-5.645-6.452c-0.472-0.532-1.229-0.536-1.708-0.12c-0.478,0.416-0.535,1.229-0.12,1.708
		l3.894,4.448H294.71c-0.668,0-1.21,0.542-1.21,1.21s0.542,1.21,1.21,1.21h19.922l-3.894,4.448c-0.416,0.478-0.348,1.28,0.12,1.708
		c0.49,0.448,1.292,0.359,1.708-0.12l5.645-6.452C318.607,1348.29,318.586,1347.693,318.211,1347.231L318.211,1347.231z"/>
</g>
</svg>
