<?xml version="1.0" encoding="utf-8"?>
<!-- Generator: Adobe Illustrator 17.0.0, SVG Export Plug-In . SVG Version: 6.00 Build 0)  -->
<!DOCTYPE svg PUBLIC "-//W3C//DTD SVG 1.1//EN" "http://www.w3.org/Graphics/SVG/1.1/DTD/svg11.dtd">
<svg version="1.1" id="Layer_1" xmlns="http://www.w3.org/2000/svg" xmlns:xlink="http://www.w3.org/1999/xlink" x="0px" y="0px"
	 width="26px" height="26.381px" viewBox="293 383 26 26.381" enable-background="new 293 383 26 26.381" xml:space="preserve">
<path d="M319,390.095v3.381v12.238c0,2.048-1.667,3.667-3.667,3.667h-18.667c-2.048,0-3.667-1.667-3.667-3.667v-12.238v-3.381
	c0-2.048,1.667-3.667,3.667-3.667h1.238v1.429V390c0,1.476,1.19,2.667,2.667,2.667c1.476,0,2.667-1.19,2.667-2.667v-2.143v-1.429
	h5.81v1.429V390c0,1.476,1.19,2.667,2.667,2.667c1.476,0,2.667-1.19,2.667-2.667v-2.143v-1.429h1
	C317.333,386.429,319,388.048,319,390.095z M317.905,393.143h-23.81v12.571c0,1.429,1.143,2.571,2.571,2.571h18.667
	c1.429,0,2.571-1.143,2.571-2.571V393.143z M300.571,391.619c0.905,0,1.619-0.714,1.619-1.619v-2.143v-1.429v-1.81
	c0-0.905-0.714-1.619-1.619-1.619c-0.905,0-1.619,0.714-1.619,1.619v1.81v1.429V390
	C298.952,390.905,299.667,391.619,300.571,391.619z M311.714,391.619c0.905,0,1.619-0.714,1.619-1.619v-2.143v-1.429v-1.81
	c0-0.905-0.714-1.619-1.619-1.619c-0.905,0-1.619,0.714-1.619,1.619v1.81v1.429V390C310.048,390.905,310.81,391.619,311.714,391.619
	z M311.952,396.571c-0.476-0.476-1.286-0.476-1.762,0l-5.81,5.762l-2.571-2.571c-0.476-0.476-1.286-0.476-1.762,0
	s-0.476,1.286,0,1.762l3.429,3.429c0.238,0.238,0.571,0.381,0.857,0.381c0.286,0,0.619-0.143,0.857-0.381l6.667-6.667
	C312.429,397.81,312.429,397.048,311.952,396.571z"/>
</svg>
