<?xml version="1.0" encoding="utf-8"?>
<!-- Generator: Adobe Illustrator 17.0.0, SVG Export Plug-In . SVG Version: 6.00 Build 0)  -->
<!DOCTYPE svg PUBLIC "-//W3C//DTD SVG 1.1//EN" "http://www.w3.org/Graphics/SVG/1.1/DTD/svg11.dtd">
<svg version="1.1" id="Layer_1" xmlns="http://www.w3.org/2000/svg" xmlns:xlink="http://www.w3.org/1999/xlink" x="0px" y="0px"
	 width="15px" height="13.248px" viewBox="298.5 388.5 15 13.248" enable-background="new 298.5 388.5 15 13.248"
	 xml:space="preserve">
<g>
	<path d="M311.488,388.5h-10.976c-1.111,0-2.012,0.901-2.012,2.012v7.134c0,1.111,0.901,2.012,2.012,2.012h6.183l2.186,1.868
		c0.165,0.142,0.376,0.221,0.595,0.221c0.133,0,0.264-0.03,0.384-0.086c0.324-0.15,0.531-0.474,0.531-0.831v-1.173h1.098
		c1.111,0,2.012-0.901,2.012-2.012v-7.134C313.5,389.401,312.599,388.5,311.488,388.5z M312.402,397.646
		c0,0.505-0.409,0.915-0.915,0.915h-1.646c-0.303,0-0.549,0.246-0.549,0.549v1.319l-2.03-1.734
		c-0.102-0.087-0.232-0.134-0.366-0.132h-6.384c-0.505,0-0.915-0.409-0.915-0.915v-7.134c0-0.505,0.409-0.915,0.915-0.915h10.976
		c0.505,0,0.915,0.409,0.915,0.915V397.646z"/>
	<circle cx="302.696" cy="394.127" r="1.189"/>
	<circle cx="306" cy="394.127" r="1.189"/>
	<circle cx="309.304" cy="394.127" r="1.189"/>
</g>
</svg>
