<?xml version="1.0" encoding="utf-8"?>
<!-- Generator: Adobe Illustrator 17.0.0, SVG Export Plug-In . SVG Version: 6.00 Build 0)  -->
<!DOCTYPE svg PUBLIC "-//W3C//DTD SVG 1.1//EN" "http://www.w3.org/Graphics/SVG/1.1/DTD/svg11.dtd">
<svg version="1.1" id="Layer_1" xmlns="http://www.w3.org/2000/svg" xmlns:xlink="http://www.w3.org/1999/xlink" x="0px" y="0px"
	 width="18px" height="18px" viewBox="297 387 18 18" enable-background="new 297 387 18 18" xml:space="preserve">
<path fill="#FFFFFF" d="M314.655,402.958l-3.039-3.039c1-1.36,1.58-3.019,1.58-4.819c0-4.459-3.639-8.098-8.098-8.098
	S297,390.621,297,395.1s3.639,8.118,8.098,8.118c1.799,0,3.479-0.6,4.819-1.6l3.039,3.019c0.22,0.24,0.54,0.36,0.84,0.36
	c0.3,0,0.62-0.12,0.86-0.34C315.115,404.178,315.115,403.418,314.655,402.958z M299.399,395.1c0-3.139,2.559-5.698,5.698-5.698
	c3.159,0,5.698,2.559,5.698,5.698s-2.559,5.698-5.698,5.698S299.399,398.239,299.399,395.1z"/>
</svg>
