<?xml version="1.0" encoding="utf-8"?>
<!-- Generator: Adobe Illustrator 17.0.0, SVG Export Plug-In . SVG Version: 6.00 Build 0)  -->
<!DOCTYPE svg PUBLIC "-//W3C//DTD SVG 1.1//EN" "http://www.w3.org/Graphics/SVG/1.1/DTD/svg11.dtd">
<svg version="1.1" id="Layer_1" xmlns="http://www.w3.org/2000/svg" xmlns:xlink="http://www.w3.org/1999/xlink" x="0px" y="0px"
	 width="20px" height="20px" viewBox="296 386 20 20" enable-background="new 296 386 20 20" xml:space="preserve">
<path d="M315.821,389.532l-3.335-3.335c-0.286-0.286-0.715-0.286-1.001,0l-10.482,10.482c-0.095,0.095-0.143,0.238-0.191,0.334
	l-0.953,4.288c-0.048,0.238,0,0.476,0.191,0.667c0.143,0.143,0.334,0.191,0.524,0.191c0.048,0,0.095,0,0.143,0l4.288-0.953
	c0.143-0.048,0.238-0.095,0.334-0.191l10.482-10.482C316.06,390.294,316.06,389.818,315.821,389.532z M304.434,399.871l-2.954,0.667
	l0.667-3.002l9.815-9.815l0.667,0.667l-8.577,8.529c-0.286,0.286-0.286,0.715,0,1.001c0.143,0.143,0.334,0.191,0.524,0.191
	s0.381-0.048,0.524-0.191l8.529-8.529l0.667,0.667L304.434,399.871z M314.582,393.105v9.815c0,1.715-1.382,3.097-3.097,3.097
	h-12.388c-1.715,0-3.097-1.382-3.097-3.097v-12.388c0-1.715,1.382-3.097,3.097-3.097h9.815l-1.429,1.429h-8.386
	c-0.905,0-1.668,0.762-1.668,1.668v12.388c0,0.905,0.762,1.668,1.668,1.668h12.388c0.905,0,1.668-0.762,1.668-1.668v-8.386
	L314.582,393.105z"/>
</svg>
